<svg width="50" height="54" viewBox="0 0 50 54" fill="none" xmlns="http://www.w3.org/2000/svg">
<path fill-rule="evenodd" clip-rule="evenodd" d="M5.42648 19.9448L10.5264 9.1259H5.42648V1.39867L0.326172 12.2176H5.42648V19.9448Z" fill="#38B71D"/>
<path fill-rule="evenodd" clip-rule="evenodd" d="M23.9574 33.8798L20.2754 53.7231H30.442L26.7592 33.8798H23.9574Z" fill="#38B71D"/>
<path fill-rule="evenodd" clip-rule="evenodd" d="M25.5454 23.0723C25.5766 23.0723 25.6085 23.0734 25.6404 23.076C25.9742 23.1012 26.2779 23.2548 26.4964 23.5084C26.7144 23.7617 26.8209 24.0855 26.796 24.4193C26.7708 24.7531 26.6169 25.0572 26.3636 25.2753C26.1095 25.4937 25.7865 25.6013 25.452 25.575C25.1182 25.5501 24.8144 25.3962 24.596 25.1425C24.3779 24.8888 24.2718 24.5651 24.2963 24.2313C24.346 23.5744 24.8968 23.0723 25.5454 23.0723L25.5454 23.0723ZM25.186 29.1098C25.3092 29.1187 25.4319 29.1235 25.5543 29.1235C26.7003 29.1235 27.7966 28.7181 28.6745 27.9634C29.6465 27.1274 30.2344 25.9637 30.3304 24.6852C30.5288 22.0472 28.5439 19.7392 25.9062 19.5412C23.2674 19.3428 20.9602 21.3273 20.7617 23.966C20.5633 26.6037 22.5482 28.9113 25.1859 29.1097" fill="#38B71D"/>
<path fill-rule="evenodd" clip-rule="evenodd" d="M21.501 8.64493C19.9964 9.03249 18.5566 9.63624 17.2227 10.4392L19.0507 13.4759C20.0903 12.8502 21.2122 12.3799 22.3849 12.078L21.501 8.64493Z" fill="#38B71D"/>
<path fill-rule="evenodd" clip-rule="evenodd" d="M27.0357 4.52823C29.3403 4.70291 31.5396 5.26183 33.602 6.18121L31.8148 9.39593C30.2141 8.72241 28.5207 8.31556 26.762 8.18387C25.9835 8.12601 25.1954 8.12231 24.4214 8.17423L24.661 11.7113C25.2674 11.6697 25.8849 11.6723 26.4968 11.7183C27.7381 11.8118 28.936 12.0833 30.0776 12.5216L26.9192 18.2057L30.0179 19.9269L39.3484 3.13792L36.2497 1.4163L35.3288 3.07336C32.8139 1.91068 30.1236 1.20714 27.3019 0.993514C24.975 0.819576 22.6526 0.987951 20.3984 1.49605L21.1769 4.95373C23.0892 4.52314 25.0599 4.38035 27.0356 4.52796" fill="#38B71D"/>
<path fill-rule="evenodd" clip-rule="evenodd" d="M18.9331 5.60188L17.7492 2.26098C16.2802 2.78132 14.8564 3.45367 13.5176 4.25889L15.3449 7.29597C16.4805 6.61318 17.6873 6.04318 18.9331 5.60178" fill="#38B71D"/>
<path fill-rule="evenodd" clip-rule="evenodd" d="M37.7969 27.7568L41.2115 28.7074C41.6288 27.2105 41.8253 25.6621 41.7972 24.1059L38.2531 24.1697C38.2757 25.3832 38.1218 26.59 37.7969 27.7568" fill="#38B71D"/>
<path fill-rule="evenodd" clip-rule="evenodd" d="M42.0108 35.5584C40.7004 37.4765 39.1072 39.1095 37.268 40.4391L35.3769 37.2851C36.7729 36.2311 37.9816 34.9609 38.9819 33.4936C39.4232 32.8472 39.8197 32.1663 40.1605 31.4702L36.9769 29.911C36.7103 30.4555 36.4002 30.9888 36.0534 31.4961C35.3458 32.5346 34.495 33.4358 33.5333 34.2094L30.1576 28.5777L27.1172 30.3998L36.9904 46.8707L40.0312 45.0486L39.0955 43.4883C41.3723 41.888 43.3361 39.903 44.9386 37.5565C46.2538 35.6287 47.2689 33.5321 47.9557 31.3262L44.5711 30.2725C43.9888 32.1428 43.1273 33.9216 42.0109 35.5586" fill="#38B71D"/>
<path fill-rule="evenodd" clip-rule="evenodd" d="M45.4576 24.0511C45.4817 25.377 45.3712 26.7074 45.1309 28.0051L48.6164 28.6515C48.8997 27.1198 49.0299 25.5506 49.0013 23.9874L45.4576 24.0511Z" fill="#38B71D"/>
<path fill-rule="evenodd" clip-rule="evenodd" d="M14.377 35.5403C15.4651 36.6497 16.7075 37.595 18.0694 38.3482L19.7862 35.2473C18.724 34.6595 17.7556 33.9233 16.9079 33.0584L14.377 35.5403Z" fill="#38B71D"/>
<path fill-rule="evenodd" clip-rule="evenodd" d="M8.04512 32.8069C7.06226 30.7615 6.44958 28.619 6.20482 26.4167L9.88951 26.3569C10.1146 28.0363 10.6008 29.6644 11.3474 31.2158C11.6867 31.9208 12.0776 32.6048 12.5108 33.2482L15.4522 31.2707C15.1143 30.7674 14.8076 30.2322 14.5413 29.6789C14.0195 28.5948 13.6616 27.4629 13.4654 26.2984L19.5518 26.1997L19.4965 22.6556L0.298828 22.9675L0.353347 26.5116L2.65052 26.4745C2.91199 29.1908 3.64335 31.8303 4.85057 34.3434C5.86267 36.4452 7.17082 38.3723 8.73806 40.0708L11.3428 37.6672C10.0139 36.2267 8.90383 34.5915 8.04497 32.8069" fill="#38B71D"/>
<path fill-rule="evenodd" clip-rule="evenodd" d="M10.7246 41.9814C11.9088 42.9927 13.2028 43.8896 14.571 44.6468L16.2878 41.546C15.1273 40.9036 14.0303 40.1434 13.0262 39.2862L10.7246 41.9814Z" fill="#38B71D"/>
</svg>
