<svg width="24" height="24" viewBox="0 0 24 24" fill="none" xmlns="http://www.w3.org/2000/svg">
<path d="M11.7949 0.79126C5.46992 0.79126 0.294922 5.96626 0.294922 12.2913C0.294922 18.6163 5.46992 23.7913 11.7949 23.7913C18.1199 23.7913 23.2949 18.6163 23.2949 12.2913C23.2949 5.96626 18.1199 0.79126 11.7949 0.79126ZM19.7299 7.69126H16.3949C16.0499 6.19626 15.4749 4.93126 14.7849 3.55126C16.8549 4.35626 18.6949 5.73626 19.7299 7.69126ZM11.7949 3.09126C12.7149 4.47126 13.5199 5.96626 13.9799 7.69126H9.60992C10.0699 6.08126 10.8749 4.47126 11.7949 3.09126ZM2.93992 14.5913C2.70992 13.9013 2.59492 13.0963 2.59492 12.2913C2.59492 11.4863 2.70992 10.6813 2.93992 9.99126H6.84992C6.73492 10.7963 6.73492 11.4863 6.73492 12.2913C6.73492 13.0963 6.84992 13.7863 6.84992 14.5913H2.93992ZM3.85992 16.8913H7.19492C7.53992 18.3863 8.11492 19.6513 8.80492 21.0313C6.73492 20.2263 4.89492 18.8463 3.85992 16.8913ZM7.19492 7.69126H3.85992C5.00992 5.73626 6.73492 4.35626 8.80492 3.55126C8.11492 4.93126 7.53992 6.19626 7.19492 7.69126ZM11.7949 21.4913C10.8749 20.1113 10.0699 18.6163 9.60992 16.8913H13.9799C13.5199 18.5013 12.7149 20.1113 11.7949 21.4913ZM14.4399 14.5913H9.14992C9.03492 13.7863 8.91992 13.0963 8.91992 12.2913C8.91992 11.4863 9.03492 10.7963 9.14992 9.99126H14.5549C14.6699 10.7963 14.7849 11.4863 14.7849 12.2913C14.7849 13.0963 14.5549 13.7863 14.4399 14.5913ZM14.7849 21.0313C15.4749 19.7663 16.0499 18.3863 16.3949 16.8913H19.7299C18.6949 18.8463 16.8549 20.2263 14.7849 21.0313ZM16.8549 14.5913C16.9699 13.7863 16.9699 13.0963 16.9699 12.2913C16.9699 11.4863 16.8549 10.7963 16.8549 9.99126H20.7649C20.9949 10.6813 21.1099 11.4863 21.1099 12.2913C21.1099 13.0963 20.9949 13.9013 20.7649 14.5913H16.8549Z" fill="white"/>
</svg>
