<svg width="35" height="36" viewBox="0 0 35 36" fill="none" xmlns="http://www.w3.org/2000/svg">
<path d="M34.5 4.71582C34.5 2.78282 32.933 1.21582 31 1.21582H4C2.067 1.21582 0.5 2.78282 0.5 4.71582V31.7158C0.5 33.6488 2.067 35.2158 4 35.2158H31C32.933 35.2158 34.5 33.6488 34.5 31.7158V4.71582Z" stroke="#B5B5B5"/>
<path d="M24.6321 17.5087C25.0227 17.8992 25.0227 18.5324 24.6321 18.9229L18.2682 25.2869C17.8776 25.6774 17.2445 25.6774 16.854 25.2869C16.4634 24.8964 16.4634 24.2632 16.854 23.8727L22.5108 18.2158L16.854 12.559C16.4634 12.1684 16.4634 11.5353 16.854 11.1448C17.2445 10.7542 17.8776 10.7542 18.2682 11.1448L24.6321 17.5087ZM11.0742 17.2158L23.925 17.2158L23.925 19.2158L11.0742 19.2158L11.0742 17.2158Z" fill="#151515"/>
</svg>
