<svg width="35" height="36" viewBox="0 0 35 36" fill="none" xmlns="http://www.w3.org/2000/svg">
<path d="M0.5 4.71582C0.5 2.78282 2.067 1.21582 4 1.21582H31C32.933 1.21582 34.5 2.78282 34.5 4.71582V31.7158C34.5 33.6488 32.933 35.2158 31 35.2158H4C2.067 35.2158 0.5 33.6488 0.5 31.7158V4.71582Z" stroke="#B5B5B5"/>
<path d="M10.3679 17.5087C9.97735 17.8992 9.97735 18.5324 10.3679 18.9229L16.7318 25.2869C17.1224 25.6774 17.7555 25.6774 18.146 25.2869C18.5366 24.8964 18.5366 24.2632 18.146 23.8727L12.4892 18.2158L18.146 12.559C18.5366 12.1684 18.5366 11.5353 18.146 11.1448C17.7555 10.7542 17.1224 10.7542 16.7318 11.1448L10.3679 17.5087ZM23.9258 17.2158L11.075 17.2158L11.075 19.2158L23.9258 19.2158L23.9258 17.2158Z" fill="#151515"/>
</svg>
